<?xml version="1.0" standalone="no"?>
<!DOCTYPE svg PUBLIC "-//W3C//DTD SVG 20010904//EN"
 "http://www.w3.org/TR/2001/REC-SVG-20010904/DTD/svg10.dtd">
<svg version="1.0" xmlns="http://www.w3.org/2000/svg"
 width="905.000000pt" height="1280.000000pt" viewBox="0 0 905.000000 1280.000000"
 preserveAspectRatio="xMidYMid meet">
<g transform="translate(0.000000,1280.000000) scale(0.100000,-0.100000)"
fill="#000000" stroke="none">
<path d="M842 12768 c-20 -47 -35 -200 -29 -298 7 -117 27 -187 70 -239 420
-516 509 -639 628 -866 230 -438 323 -834 209 -895 -16 -8 -103 -10 -323 -5
-320 8 -410 2 -512 -34 -78 -28 -166 -93 -272 -204 -83 -88 -283 -341 -283
-359 0 -21 22 -1 90 78 102 118 258 264 344 322 129 87 297 122 576 122 237
-1 371 -21 409 -61 23 -25 58 -143 83 -279 23 -130 35 -374 19 -412 -20 -52
-75 -74 -506 -203 -375 -113 -585 -197 -724 -289 -92 -61 -245 -222 -372 -392
-129 -172 -244 -342 -237 -349 3 -3 66 70 141 162 238 298 403 456 569 547
154 83 546 229 808 300 100 27 237 46 278 38 21 -4 23 -9 20 -41 -3 -20 -21
-89 -41 -154 -20 -65 -46 -167 -57 -228 -36 -200 -165 -1363 -157 -1418 l3
-26 6 25 c3 14 16 108 28 210 48 410 99 644 180 816 125 266 195 336 385 380
109 26 315 26 400 0 90 -27 172 -74 216 -125 111 -126 189 -388 220 -745 19
-212 32 -167 28 96 -3 201 -2 233 11 235 9 1 95 -94 210 -233 201 -243 367
-424 388 -424 7 0 12 5 12 11 0 21 -123 189 -300 409 -305 378 -316 394 -339
462 -26 82 -44 194 -36 236 8 42 48 74 311 243 150 97 234 158 301 221 123
115 165 133 323 133 108 0 130 -4 380 -67 478 -119 1080 -216 1285 -206 74 3
69 6 101 -70 23 -56 92 -117 141 -126 72 -13 459 -25 653 -19 156 4 212 2 281
-11 47 -9 97 -16 112 -16 20 0 31 -8 43 -32 30 -58 160 -212 259 -306 78 -75
112 -100 188 -136 51 -24 123 -51 161 -59 38 -9 72 -19 77 -24 4 -4 -5 -27
-21 -51 -16 -24 -36 -67 -46 -95 -26 -82 -52 -119 -115 -167 -169 -129 -276
-350 -267 -554 2 -65 9 -93 31 -135 15 -29 27 -57 27 -61 0 -5 -17 -19 -37
-31 -104 -63 -142 -109 -184 -224 -25 -70 -41 -92 -144 -200 -52 -55 -86 -102
-109 -151 -42 -87 -66 -157 -66 -189 0 -15 -13 -34 -40 -55 -67 -53 -143 -177
-191 -310 -19 -53 -35 -78 -95 -136 -89 -89 -154 -180 -199 -278 -33 -71 -39
-77 -91 -103 -116 -57 -169 -153 -168 -308 0 -119 15 -173 89 -340 121 -270
137 -311 170 -440 39 -151 65 -227 128 -381 82 -201 255 -529 359 -682 17 -24
28 -49 25 -56 -3 -6 -47 -20 -100 -29 -225 -40 -469 -150 -670 -304 -99 -75
-279 -257 -366 -368 -99 -126 -188 -266 -257 -405 -65 -130 -81 -178 -102
-303 -13 -85 -14 -117 -4 -216 12 -118 50 -273 97 -390 14 -36 25 -73 25 -83
0 -35 -38 -92 -162 -248 -237 -297 -264 -357 -199 -446 43 -60 204 -210 329
-307 l112 -88 0 -160 c0 -106 4 -159 10 -157 28 9 369 285 367 296 -1 8 -40
30 -87 49 -91 39 -161 91 -354 262 -123 109 -176 172 -176 210 0 36 41 103
169 276 61 83 125 178 142 212 37 74 37 78 -27 277 -69 215 -87 317 -81 466 5
153 32 244 109 373 149 251 471 579 751 766 169 113 354 181 455 167 86 -12
176 -72 236 -159 48 -69 78 -159 120 -354 38 -173 54 -227 91 -288 41 -71 173
-185 345 -299 91 -60 194 -137 228 -170 79 -75 156 -190 221 -327 67 -142 92
-220 98 -310 5 -68 2 -83 -21 -135 -15 -32 -42 -77 -61 -100 l-35 -42 -105
-12 c-71 -9 -105 -17 -105 -26 0 -13 167 -214 179 -214 4 0 30 33 59 73 29 39
72 97 97 127 25 30 62 89 83 129 36 74 37 77 37 190 0 101 -4 126 -28 196 -64
180 -191 399 -298 511 -59 61 -85 80 -294 217 -128 83 -223 170 -260 238 -28
53 -29 57 -29 205 l-1 151 -44 87 c-24 48 -41 89 -39 92 3 3 51 -22 106 -55
143 -85 346 -195 460 -248 237 -111 349 -140 635 -168 205 -20 304 -44 374
-90 104 -69 183 -220 228 -433 22 -109 24 -105 -55 -141 -38 -17 -70 -35 -70
-41 0 -11 210 -159 226 -160 20 0 38 151 26 222 -6 35 -19 108 -28 163 -49
295 -150 460 -326 533 -96 40 -189 59 -383 77 -368 35 -334 29 -473 91 -419
188 -720 367 -895 534 -181 171 -339 411 -475 720 -63 142 -142 359 -142 389
0 15 19 18 183 27 213 11 246 22 284 94 29 55 29 91 -3 165 -14 33 -56 146
-94 250 -56 160 -81 223 -137 353 -4 9 11 12 55 12 51 0 73 7 149 45 49 24
109 59 134 78 82 63 91 89 227 697 5 19 5 50 1 68 -9 43 -1 45 86 32 39 -6 99
-14 135 -17 86 -7 99 7 110 115 5 43 18 129 31 192 26 130 34 142 150 231 88
67 124 109 134 157 4 19 19 48 34 65 55 63 62 107 24 149 -28 32 -9 48 56 48
98 0 109 25 141 300 40 344 34 320 95 438 42 82 58 124 66 182 21 139 -2 251
-63 307 -31 29 -63 40 -137 49 -35 4 -61 11 -61 18 0 6 23 26 50 45 115 78
185 172 210 287 15 67 5 115 -41 184 -59 88 -122 138 -261 208 -71 35 -154 86
-192 118 -64 53 -158 162 -205 238 -25 39 -66 66 -102 66 -37 0 -150 -31 -219
-61 -35 -15 -68 -25 -72 -23 -5 3 -8 15 -8 26 0 36 -41 109 -72 128 -16 10
-57 21 -91 25 -34 3 -114 17 -177 30 -165 33 -386 65 -529 75 -172 12 -540
-10 -559 -33 -6 -7 -18 -39 -27 -72 -15 -49 -17 -82 -11 -180 3 -66 9 -143 12
-171 6 -48 5 -52 -17 -57 -36 -10 -209 -8 -344 3 -250 22 -400 61 -575 149
-244 123 -407 247 -535 406 -40 50 -107 130 -149 179 -124 145 -150 225 -98
296 68 91 216 129 796 200 182 23 389 52 460 65 209 39 704 165 1219 311 53
15 97 31 97 36 0 4 -3 8 -8 8 -4 0 -284 -56 -621 -125 -373 -76 -618 -122
-624 -116 -5 5 37 92 108 219 64 116 115 216 113 223 -2 6 -37 -38 -78 -98
-99 -145 -215 -298 -259 -342 -20 -20 -55 -42 -78 -49 -109 -32 -470 -81 -868
-118 -178 -16 -181 -16 -269 5 -218 52 -322 150 -302 286 5 29 44 119 106 240
103 203 117 244 127 384 6 93 -10 385 -33 599 -15 145 -23 184 -33 178 -3 -3
1 -71 11 -153 19 -169 23 -427 7 -522 -21 -131 -106 -329 -206 -479 -67 -102
-217 -260 -319 -338 -73 -56 -75 -57 -125 -51 -113 14 -242 136 -333 315 -41
81 -60 252 -60 552 -1 235 0 247 23 304 26 65 78 123 135 150 34 16 111 33
229 51 45 7 47 18 6 36 -77 31 -205 5 -324 -66 -32 -20 -62 -32 -66 -28 -4 4
-24 51 -43 102 -99 258 -232 442 -369 513 -44 22 -65 14 -27 -11 120 -79 231
-252 307 -478 47 -143 56 -240 57 -643 1 -362 -14 -517 -52 -570 -42 -57 -165
-101 -322 -115 -80 -7 -287 8 -385 28 l-60 13 -88 164 c-268 502 -325 585
-582 852 -140 145 -214 230 -235 269 -45 86 -71 211 -79 384 -6 126 -9 146
-19 123z m5598 -2907 c74 -12 209 -34 300 -51 91 -16 182 -32 203 -35 52 -8
77 -50 77 -127 0 -52 -2 -58 -22 -62 -13 -3 -122 -7 -243 -10 -234 -4 -263 -8
-680 -82 -137 -24 -278 -47 -312 -50 -60 -6 -63 -6 -72 17 -5 14 -14 77 -19
141 -11 115 -5 207 17 245 24 44 494 52 751 14z m1023 -258 c118 -168 199
-238 398 -339 108 -55 137 -75 183 -126 30 -33 62 -76 71 -95 24 -50 15 -118
-24 -198 -25 -51 -47 -77 -99 -119 -69 -55 -146 -106 -160 -106 -4 0 -27 57
-51 128 -50 150 -138 335 -213 447 -109 164 -276 310 -410 360 -27 10 -48 22
-48 26 0 26 188 99 257 99 40 0 43 -2 96 -77z m-523 -182 c0 -35 -19 -72 -56
-106 -36 -34 -36 -35 -31 -102 3 -38 9 -83 13 -102 l7 -33 -44 6 c-24 4 -242
11 -483 16 -272 5 -458 13 -489 21 -59 14 -112 57 -127 104 -14 43 -9 53 38
61 20 3 102 21 182 39 80 19 181 39 225 45 265 38 546 68 648 69 109 1 117 0
117 -18z m225 -35 c206 -99 344 -275 458 -586 53 -143 74 -227 61 -248 -15
-24 -89 -27 -167 -7 -114 28 -199 78 -304 178 -106 102 -253 279 -253 306 0
10 10 26 21 37 38 33 51 82 56 209 2 66 6 126 8 133 7 21 47 14 120 -22z
m-185 -147 c0 -33 -7 -76 -15 -96 -13 -30 -17 -33 -30 -23 -16 13 -35 71 -35
108 0 27 54 87 70 77 5 -3 10 -33 10 -66z m1069 -737 c60 -30 76 -62 79 -161
5 -120 -10 -192 -58 -273 -58 -97 -69 -135 -85 -293 -23 -223 -43 -363 -57
-393 -13 -26 -15 -27 -113 -30 -120 -3 -140 1 -161 33 -16 24 -14 29 41 152
141 312 189 581 162 891 l-9 92 84 0 c59 0 93 -5 117 -18z m-334 -205 c0 -253
-49 -453 -172 -697 l-68 -134 -98 -19 c-111 -22 -114 -20 -150 47 -17 32 -21
58 -21 121 1 101 24 188 76 288 40 77 52 91 219 249 48 46 60 64 82 132 30 89
102 195 121 176 7 -7 11 -66 11 -163z m-290 -907 c3 -6 -1 -13 -10 -16 -19 -8
-30 0 -20 15 8 14 22 14 30 1z m-91 -60 c25 -10 46 -24 46 -29 0 -29 -451
-676 -482 -691 -7 -4 -48 -5 -90 -2 -61 3 -78 7 -78 19 0 9 18 57 41 108 35
81 53 107 139 199 90 97 102 114 132 193 37 99 74 143 160 192 63 36 72 37
132 11z m350 -45 c43 -21 106 -73 106 -89 0 -7 -15 -33 -34 -57 -19 -24 -39
-63 -45 -85 -12 -44 -38 -71 -148 -156 -94 -72 -108 -95 -136 -238 -14 -69
-29 -155 -33 -193 -3 -37 -11 -70 -16 -73 -9 -6 -134 14 -238 37 -48 11 -90
43 -90 68 0 9 29 50 64 92 78 94 278 391 376 559 40 69 80 131 88 138 21 16
67 15 106 -3z m-910 -785 c13 -13 -10 -37 -128 -136 -135 -114 -157 -112 -88
6 20 35 56 84 79 108 41 43 44 44 85 38 24 -4 47 -11 52 -16z m242 -89 c23
-14 34 -31 43 -65 11 -44 7 -67 -54 -333 -36 -158 -75 -307 -86 -331 -12 -24
-40 -57 -63 -74 -49 -36 -213 -118 -235 -118 -29 1 -106 41 -139 73 -73 70
-95 165 -72 315 13 79 18 91 54 130 62 68 490 422 510 422 6 0 25 -9 42 -19z
m-676 -636 c0 -59 -1 -60 -31 -45 -23 13 -24 31 -4 70 23 45 35 36 35 -25z
m-7 -135 c95 -84 199 -280 290 -545 30 -88 71 -199 91 -247 51 -122 45 -173
-21 -207 -26 -13 -312 -33 -355 -24 -16 3 -36 15 -43 27 -17 26 -68 253 -89
397 -30 200 -19 418 29 582 20 70 35 72 98 17z m-253 10 c0 -5 -7 -55 -16
-112 -13 -78 -15 -147 -12 -285 3 -101 1 -183 -3 -183 -11 0 -44 65 -77 149
-22 57 -26 82 -26 186 -1 132 7 159 67 223 29 30 67 43 67 22z"/>
</g>
</svg>
